<?xml version="1.0" standalone="no"?>
<!DOCTYPE svg PUBLIC "-//W3C//DTD SVG 20010904//EN"
 "http://www.w3.org/TR/2001/REC-SVG-20010904/DTD/svg10.dtd">
<svg version="1.0" xmlns="http://www.w3.org/2000/svg"
 width="478.000000pt" height="478.000000pt" viewBox="0 0 478.000000 478.000000"
 preserveAspectRatio="xMidYMid meet">
<metadata>
Created by potrace 1.11, written by Peter Selinger 2001-2013
</metadata>
<g transform="translate(0.000000,478.000000) scale(0.100000,-0.100000)"
fill="#000000" stroke="none">
<path d="M2169 4270 c-480 -56 -940 -309 -1243 -683 -474 -586 -561 -1380
-223 -2041 52 -102 149 -257 196 -312 14 -17 42 -50 61 -73 19 -23 52 -60 73
-82 20 -23 35 -44 32 -49 -6 -10 126 -145 170 -175 48 -32 77 -64 69 -77 -5
-7 -3 -8 5 -3 13 7 81 -24 81 -37 0 -5 7 -8 15 -8 8 0 15 -4 15 -10 0 -5 6
-10 14 -10 8 0 16 -4 18 -9 2 -4 23 -18 48 -29 25 -12 64 -33 88 -47 23 -14
48 -25 55 -25 17 0 151 -53 155 -62 2 -4 10 -4 18 -1 8 3 14 0 14 -7 0 -6 6
-10 13 -7 6 2 32 -2 57 -10 227 -68 600 -81 840 -28 36 8 92 19 125 26 33 7
103 30 155 51 52 22 102 40 112 41 10 1 18 5 18 10 0 4 5 5 10 2 6 -3 10 -1
10 4 0 6 4 11 10 11 5 0 31 13 57 29 27 16 60 33 76 36 15 4 27 11 27 16 0 5
7 9 15 9 8 0 15 4 15 9 0 14 68 53 80 46 6 -4 9 -1 8 5 -2 6 17 28 41 48 25
20 41 30 37 22 -4 -8 8 3 28 25 19 22 35 36 36 30 0 -5 10 5 21 22 12 18 25
33 30 33 5 0 9 7 9 15 0 8 6 12 14 9 11 -4 13 0 9 14 -2 11 1 23 8 27 8 6 10
4 4 -6 -7 -11 -6 -12 7 -2 8 7 19 9 23 5 5 -4 5 -1 1 6 -4 7 -12 10 -17 7 -5
-4 -9 -2 -9 3 0 6 13 15 30 21 17 5 30 13 30 16 0 3 -5 3 -11 0 -6 -4 6 16 26
43 20 28 39 52 43 54 4 2 28 30 53 63 259 337 399 744 399 1160 0 856 -585
1611 -1415 1825 -210 54 -480 74 -686 50z m578 -44 c307 -65 586 -195 813
-381 83 -68 252 -242 311 -320 150 -199 261 -428 320 -662 147 -581 15 -1185
-357 -1643 -66 -82 -239 -250 -321 -313 -335 -256 -756 -389 -1188 -374 -181
6 -298 24 -465 72 -217 62 -445 179 -624 319 -93 73 -270 252 -339 344 -180
238 -296 506 -354 816 -24 128 -24 494 0 622 36 191 99 378 182 544 101 201
310 454 499 606 201 161 451 285 704 348 84 21 137 31 277 50 17 3 118 3 225
1 161 -3 216 -8 317 -29z m-1596 -3253 c13 -16 12 -17 -3 -4 -10 7 -18 15 -18
17 0 8 8 3 21 -13z m2489 13 c0 -2 -8 -10 -17 -17 -16 -13 -17 -12 -4 4 13 16
21 21 21 13z"/>
<path d="M2486 4068 c-13 -29 -40 -94 -61 -144 l-39 -92 -55 57 -56 56 27 17
c48 30 51 98 7 130 -23 18 -36 19 -119 12 l-92 -7 7 -91 c13 -176 18 -201 41
-204 19 -3 20 0 13 60 -4 35 -6 64 -4 66 2 2 17 6 35 8 40 7 69 -12 111 -71
30 -42 35 -45 79 -45 45 0 46 1 61 43 l16 42 65 3 65 3 13 -45 c8 -29 19 -48
32 -52 11 -3 22 -4 24 -1 3 2 -20 71 -49 153 -45 125 -58 150 -76 152 -18 3
-26 -6 -45 -50z m-188 -40 c4 -34 -16 -47 -85 -54 -57 -6 -60 -5 -66 17 -4 13
-7 36 -7 51 0 26 2 27 58 30 66 4 96 -9 100 -44z m251 -13 c12 -32 21 -63 21
-67 0 -4 -20 -8 -45 -8 -25 0 -45 3 -45 8 0 9 44 132 46 129 1 -1 12 -29 23
-62z"/>
<path d="M2740 4106 c0 -2 -11 -62 -25 -132 -29 -149 -30 -164 -10 -164 16 0
28 39 46 148 7 40 15 70 18 66 3 -3 29 -60 57 -127 39 -93 56 -123 71 -125 19
-3 23 10 48 143 15 80 25 149 22 152 -19 18 -35 -14 -52 -106 -10 -56 -22
-101 -25 -101 -4 0 -29 52 -55 116 -27 63 -56 119 -66 125 -19 10 -29 12 -29
5z"/>
<path d="M1887 4048 c-71 -19 -78 -23 -73 -42 3 -11 21 -76 38 -143 26 -99 36
-123 50 -123 22 0 22 9 3 80 -16 62 -17 62 61 79 41 10 54 17 54 31 0 17 -2
17 -70 0 l-70 -18 -11 40 c-6 22 -7 44 -2 48 4 4 38 15 76 25 41 11 67 23 67
31 0 18 -28 16 -123 -8z"/>
<path d="M3082 3950 c-36 -22 -67 -67 -83 -121 -33 -106 96 -207 190 -149 31
19 32 23 18 37 -14 14 -17 14 -38 -1 -36 -25 -76 -20 -110 13 -44 45 -34 106
29 174 53 56 156 22 154 -52 0 -18 5 -32 15 -35 20 -8 21 -7 27 26 10 56 -69
128 -139 128 -16 0 -45 -9 -63 -20z"/>
<path d="M1483 3883 c-18 -7 -17 -27 9 -186 18 -113 25 -137 37 -135 13 3 15
15 13 58 l-3 55 53 28 52 27 38 -30 c31 -26 41 -29 58 -20 19 10 9 20 -107
110 -71 55 -130 100 -133 99 -3 0 -11 -3 -17 -6z m121 -134 c-3 -5 -19 -16
-36 -25 -37 -19 -43 -12 -53 54 -4 24 -9 52 -13 61 -3 9 20 -6 51 -33 31 -26
54 -52 51 -57z"/>
<path d="M3292 3704 c-86 -106 -101 -134 -68 -134 7 0 48 44 92 97 112 137
108 130 87 141 -15 8 -33 -9 -111 -104z"/>
<path d="M2246 3768 c-333 -30 -670 -203 -894 -459 -229 -262 -343 -564 -343
-914 0 -174 15 -276 65 -427 159 -487 574 -846 1076 -933 123 -22 354 -21 475
0 270 48 538 188 734 385 201 201 338 463 386 741 22 124 22 345 0 469 -53
309 -230 619 -463 814 -299 248 -652 359 -1036 324z m384 -34 c261 -46 511
-176 706 -369 120 -119 181 -200 251 -332 105 -199 155 -404 155 -638 1 -376
-131 -694 -397 -960 -267 -268 -585 -398 -965 -397 -284 1 -523 73 -760 231
-98 65 -275 236 -342 331 -394 562 -321 1318 172 1783 319 301 744 427 1180
351z"/>
<path d="M1995 3168 c-159 -21 -300 -41 -312 -44 -37 -7 -27 -31 15 -38 22 -3
48 -16 63 -32 l24 -26 0 -541 c0 -539 0 -542 -23 -600 -34 -90 -51 -117 -77
-129 -19 -9 -25 -19 -25 -44 l0 -32 78 -6 c42 -3 130 -9 195 -12 103 -5 117
-4 117 10 0 9 -8 16 -18 16 -10 0 -32 15 -50 33 -28 29 -33 42 -47 141 -10 71
-15 186 -15 328 l0 218 95 0 c52 0 105 -5 119 -11 30 -14 54 -61 58 -113 2
-20 8 -37 13 -39 6 -1 11 71 13 196 2 171 0 197 -13 197 -9 0 -15 -9 -15 -22
0 -52 -21 -99 -53 -118 -26 -16 -51 -20 -124 -20 l-93 0 0 288 0 289 99 18
c127 23 183 17 223 -23 28 -28 31 -38 47 -163 10 -84 21 -134 29 -137 14 -4
17 188 5 361 -5 80 -9 97 -22 96 -9 -1 -146 -19 -306 -41z"/>
<path d="M2410 3200 c0 -6 26 -35 57 -64 56 -52 56 -53 65 -127 4 -41 7 -310
5 -599 l-3 -525 -30 -85 c-26 -72 -35 -87 -62 -100 -17 -8 -32 -21 -32 -27 0
-10 39 -13 160 -13 136 0 160 2 160 15 0 8 -8 15 -18 15 -26 0 -46 25 -78 100
l-28 65 -4 475 c-2 261 -2 473 1 470 2 -3 75 -248 161 -545 87 -297 161 -551
165 -565 8 -26 41 -41 41 -18 0 7 73 264 162 571 l163 559 3 -412 2 -411 -35
-132 c-38 -140 -47 -157 -76 -157 -11 0 -19 -7 -19 -15 0 -8 2 -15 4 -15 3 0
89 40 193 89 117 55 189 95 191 105 2 11 -3 16 -18 16 -11 0 -36 6 -55 14 -26
11 -36 23 -44 53 -15 51 -15 924 0 975 11 41 48 68 94 68 19 0 26 5 23 16 -3
17 -249 127 -259 116 -3 -4 -73 -227 -154 -497 -82 -269 -151 -493 -155 -497
-3 -4 -70 216 -148 490 -78 273 -149 521 -158 550 l-16 52 -129 0 c-83 0 -129
-4 -129 -10z"/>
<path d="M1435 3065 c-190 -55 -225 -76 -147 -88 22 -4 48 -17 63 -33 l24 -26
0 -497 c0 -457 -1 -499 -18 -524 -10 -15 -23 -24 -31 -21 -8 3 -27 38 -43 77
-26 67 -30 72 -60 75 -70 7 -99 -86 -50 -159 62 -92 191 -75 264 35 64 95 66
107 73 581 l7 430 27 70 c31 78 50 105 78 105 10 0 18 7 18 15 0 20 0 20 -205
-40z"/>
<path d="M1220 3690 c-71 -65 -82 -80 -67 -86 13 -5 28 2 50 25 l33 31 89
-101 c78 -89 90 -98 103 -85 14 13 5 26 -73 112 l-89 96 37 35 c35 32 41 53
14 53 -7 -1 -50 -36 -97 -80z"/>
<path d="M3440 3680 c-28 -28 -25 -72 10 -133 36 -65 38 -95 8 -106 -28 -10
-70 9 -92 41 -18 26 -21 74 -6 83 8 5 7 11 -1 21 -16 20 -37 1 -45 -41 -7 -41
14 -85 59 -119 41 -31 85 -33 121 -5 35 28 34 70 -4 134 -34 58 -38 90 -12
104 42 22 104 -46 88 -97 -4 -11 0 -24 8 -31 12 -10 17 -8 25 8 47 88 -90 210
-159 141z"/>
<path d="M1053 3500 c-60 -36 -86 -103 -59 -146 35 -52 74 -49 154 11 75 58
132 35 97 -39 -20 -43 -47 -60 -91 -58 -34 1 -54 -22 -28 -32 28 -11 79 -6
101 9 52 37 81 129 51 167 -37 45 -83 40 -157 -17 -56 -44 -94 -45 -99 -2 -5
38 48 92 82 83 33 -8 55 18 27 33 -28 15 -41 14 -78 -9z"/>
<path d="M3652 3459 c-78 -16 -150 -109 -137 -176 10 -54 72 -113 118 -113 49
0 66 8 60 29 -4 15 -12 18 -47 14 -38 -5 -45 -2 -69 27 -38 44 -35 81 9 130
47 52 98 69 142 46 42 -22 56 -50 48 -102 -7 -53 16 -68 34 -23 37 88 -58 190
-158 168z"/>
<path d="M890 3263 c0 -25 249 -160 261 -141 5 7 9 15 9 18 0 6 -236 133 -256
138 -8 2 -14 -4 -14 -15z"/>
<path d="M3790 3189 c-37 -15 -88 -68 -100 -105 -23 -70 33 -162 109 -179 35
-7 93 9 134 37 109 77 49 260 -85 257 -18 0 -44 -5 -58 -10z m125 -45 c32 -21
50 -79 36 -116 -12 -33 -68 -76 -109 -84 -61 -12 -122 36 -122 96 0 84 125
150 195 104z"/>
<path d="M1081 3058 c-27 -70 -44 -108 -47 -108 -2 0 -56 21 -120 46 -86 35
-118 44 -127 35 -7 -7 -7 -14 -2 -20 10 -10 253 -111 265 -111 11 0 71 161 64
171 -9 16 -24 10 -33 -13z"/>
<path d="M1010 2874 c-8 -2 -75 -12 -149 -22 -119 -15 -135 -20 -142 -39 -7
-18 8 -32 121 -112 70 -50 130 -91 134 -91 19 0 1 42 -26 61 -18 12 -35 24
-37 26 -2 1 2 30 9 63 14 64 10 62 100 73 8 1 16 12 18 25 3 22 1 23 -28 16z
m-116 -86 c-15 -70 -14 -70 -76 -30 -31 20 -57 41 -57 45 -1 5 2 6 7 4 4 -2
30 -1 57 3 28 4 56 8 63 9 10 1 12 -7 6 -31z"/>
<path d="M3945 2730 c-60 -10 -111 -19 -112 -19 -2 -1 -3 -8 -3 -16 0 -21 22
-21 215 10 17 2 -21 -22 -88 -56 -90 -45 -117 -64 -113 -75 3 -9 6 -17 6 -19
0 -1 54 -13 121 -26 72 -14 113 -26 102 -30 -10 -3 -62 -12 -115 -19 -85 -11
-98 -15 -98 -31 0 -23 -6 -23 127 -4 187 26 175 23 171 53 -3 25 -7 27 -121
49 -65 12 -124 24 -130 26 -7 2 40 30 103 62 63 31 117 59 119 61 2 2 1 15 -3
29 -8 30 -23 31 -181 5z"/>
<path d="M670 2591 c0 -16 10 -20 68 -25 37 -3 86 -7 110 -8 23 -1 42 -5 42
-8 0 -3 -51 -34 -114 -69 -160 -88 -162 -104 -16 -115 52 -4 116 -9 143 -12
42 -6 47 -4 47 14 0 18 -9 21 -97 28 -54 4 -101 8 -105 8 -24 2 -2 19 103 76
98 53 119 68 117 85 -3 21 -9 22 -215 39 -78 6 -83 5 -83 -13z"/>
<path d="M3855 2308 c-12 -133 -11 -153 5 -153 12 0 17 20 24 88 l8 87 51 0
50 0 -7 -85 c-6 -81 -5 -85 14 -85 17 0 20 7 20 49 0 27 3 63 6 80 6 29 9 31
51 31 l44 0 -7 -90 c-6 -78 -5 -90 9 -90 16 0 22 23 32 142 l6 66 -28 5 c-15
3 -68 9 -118 12 -49 3 -104 9 -122 12 l-31 5 -7 -74z"/>
<path d="M883 2274 c-35 -33 -63 -56 -63 -51 0 4 -11 19 -25 32 -49 50 -129
19 -129 -52 -1 -38 13 -165 18 -170 2 -3 206 22 264 32 23 4 32 11 32 26 0 15
-5 18 -22 15 -13 -3 -44 -8 -70 -11 l-48 -6 0 45 c0 49 5 56 73 112 31 25 38
37 35 60 l-3 28 -62 -60z m-96 -64 c6 -14 13 -47 15 -75 l3 -50 -46 -3 c-53
-3 -59 5 -59 90 0 34 5 50 18 57 27 17 56 8 69 -19z"/>
<path d="M3848 2088 c-34 -21 -58 -72 -58 -123 0 -42 44 -95 78 -95 28 0 79
45 102 89 24 48 44 64 69 56 47 -15 30 -99 -26 -125 -56 -26 -34 -59 23 -35
62 26 85 135 39 180 -47 48 -95 28 -144 -59 -36 -65 -66 -79 -93 -46 -33 41 1
126 54 137 18 4 28 12 28 24 0 23 -31 21 -72 -3z"/>
<path d="M851 1978 c-47 -16 -99 -70 -107 -113 -9 -49 19 -119 58 -147 93 -66
248 13 248 126 0 102 -98 167 -199 134z m135 -59 c45 -42 40 -120 -10 -153
-93 -61 -196 -26 -196 66 0 44 24 76 74 99 49 23 99 19 132 -12z"/>
<path d="M3725 1789 c-23 -21 -39 -46 -46 -75 -8 -30 -20 -49 -40 -61 -19 -13
-25 -23 -20 -32 7 -11 13 -10 33 3 24 15 25 15 36 -8 15 -33 69 -72 120 -85
36 -10 48 -9 87 8 56 25 85 70 85 133 0 83 -77 148 -174 148 -36 0 -52 -6 -81
-31z m191 -50 c46 -44 37 -131 -17 -160 -50 -26 -127 -4 -168 47 l-21 26 26
20 c17 14 22 24 15 31 -7 7 -15 6 -26 -3 -12 -10 -15 -10 -15 3 0 23 48 75 73
79 33 6 106 -18 133 -43z"/>
<path d="M968 1637 c-59 -34 -108 -67 -108 -74 0 -29 28 -21 122 37 74 45 107
60 124 56 31 -8 40 -42 19 -66 -24 -27 -13 -55 15 -40 64 34 28 150 -47 150
-10 0 -66 -28 -125 -63z"/>
<path d="M1206 1537 c-16 -12 -17 -14 -1 -27 14 -11 18 -11 31 2 13 12 13 16
1 26 -10 9 -18 9 -31 -1z"/>
<path d="M3571 1532 c-40 -22 -81 -79 -81 -111 1 -41 21 -67 106 -141 69 -60
81 -67 93 -55 13 13 9 19 -30 52 -133 112 -151 146 -104 197 40 44 71 36 166
-43 67 -56 86 -67 98 -58 11 10 4 20 -40 60 -120 109 -157 126 -208 99z"/>
<path d="M1270 1465 c-12 -14 -5 -24 50 -80 l64 -65 -34 -35 -34 -35 -58 57
c-45 45 -60 55 -70 45 -10 -10 0 -25 45 -70 l57 -57 -32 -33 -33 -32 -62 62
c-50 49 -65 60 -75 50 -10 -10 4 -28 65 -90 l77 -77 107 108 108 107 -81 81
c-72 72 -82 79 -94 64z"/>
<path d="M3385 1349 c-4 -5 -1 -18 7 -27 90 -105 171 -197 176 -199 4 -2 13 1
21 6 11 7 -8 34 -80 119 -92 108 -111 123 -124 101z"/>
<path d="M1480 1266 c-10 -13 -10 -19 0 -32 12 -14 15 -14 29 0 14 15 14 17 0
32 -14 14 -17 14 -29 0z"/>
<path d="M3230 1220 c-12 -7 -9 -16 16 -52 17 -24 52 -73 77 -109 l47 -66 -41
-27 c-37 -25 -46 -45 -23 -53 10 -3 185 121 185 132 1 27 -11 27 -50 1 -23
-16 -43 -27 -44 -25 -2 2 -36 50 -76 107 -39 56 -73 102 -74 102 -1 0 -9 -4
-17 -10z"/>
<path d="M1557 1203 c-13 -12 -7 -18 68 -63 41 -25 75 -48 75 -53 0 -13 -44
-77 -54 -77 -5 0 -37 18 -72 40 -50 32 -64 37 -73 26 -9 -11 3 -23 56 -57 38
-23 70 -44 72 -46 5 -3 -42 -73 -49 -73 -3 0 -38 20 -78 45 -59 37 -74 42 -79
30 -7 -19 -16 -11 88 -77 l86 -55 25 41 c14 22 50 80 81 127 l55 86 -90 57
c-93 58 -100 61 -111 49z"/>
<path d="M3103 1125 c-3 -9 -3 -33 1 -54 6 -38 5 -38 -49 -66 l-54 -29 -40 32
c-24 19 -46 29 -55 26 -22 -8 -20 -19 8 -41 13 -10 67 -55 120 -100 84 -72
100 -82 117 -72 15 8 19 17 15 37 -3 15 -10 84 -17 155 -9 96 -15 127 -26 127
-7 0 -16 -7 -20 -15z m17 -169 c0 -18 3 -48 7 -67 l6 -33 -51 44 c-29 24 -52
46 -52 50 0 9 60 39 78 40 7 0 12 -13 12 -34z"/>
<path d="M1020 1061 c0 -10 19 -25 25 -20 1 2 -3 10 -11 17 -8 7 -14 8 -14 3z"/>
</g>
</svg>
